<svg xmlns="http://www.w3.org/2000/svg" width="210mm" height="297mm" viewBox="0 0 210 297">
<rect width="210" height="297" fill="white"/>
<rect x="5" y="5" width="200" height="287" fill="none" stroke="black" stroke-width=".25"/>
<text x="105" y="12" text-anchor="middle" font-family="Arial,sans-serif" font-size="7" font-weight="700">BOVEN = G</text>
<text x="105" y="291" text-anchor="middle" font-family="Arial,sans-serif" font-size="7" font-weight="700">ONDER = T</text>
<text x="8" y="148.5" text-anchor="middle" font-family="Arial,sans-serif" font-size="5.5" font-weight="700" transform="rotate(-90 8 148.5)">LINKS = A</text>
<text x="202" y="148.5" text-anchor="middle" font-family="Arial,sans-serif" font-size="5.5" font-weight="700" transform="rotate(90 202 148.5)">RECHTS = B</text>
<line x1="55" y1="42" x2="155" y2="42" stroke="black" stroke-width=".35"/>
<line x1="55" y1="39.5" x2="55" y2="44.5" stroke="black" stroke-width=".35"/>
<line x1="155" y1="39.5" x2="155" y2="44.5" stroke="black" stroke-width=".35"/>
<text x="105" y="38" text-anchor="middle" font-family="Arial,sans-serif" font-size="3.2" font-weight="700">CONTROLELIJN EXACT 100.0 mm</text>
<line x1="87" y1="148.5" x2="123" y2="148.5" stroke="black" stroke-width=".25"/>
<line x1="105" y1="130.5" x2="105" y2="166.5" stroke="black" stroke-width=".25"/>
<text x="105" y="126" text-anchor="middle" font-family="Arial,sans-serif" font-size="3.5" font-weight="700">ISOCENTRUM</text>
<rect x="8" y="8" width="20" height="20" fill="white"/>
<rect x="8" y="8" width="4" height="4" fill="black"/><rect x="12" y="8" width="4" height="4" fill="black"/><rect x="16" y="8" width="4" height="4" fill="black"/><rect x="20" y="8" width="4" height="4" fill="black"/><rect x="24" y="8" width="4" height="4" fill="black"/>
<rect x="8" y="12" width="4" height="4" fill="black"/><rect x="24" y="12" width="4" height="4" fill="black"/><rect x="8" y="16" width="4" height="4" fill="black"/><rect x="16" y="16" width="4" height="4" fill="black"/><rect x="24" y="16" width="4" height="4" fill="black"/><rect x="8" y="20" width="4" height="4" fill="black"/><rect x="24" y="20" width="4" height="4" fill="black"/>
<rect x="8" y="24" width="4" height="4" fill="black"/><rect x="12" y="24" width="4" height="4" fill="black"/><rect x="16" y="24" width="4" height="4" fill="black"/><rect x="20" y="24" width="4" height="4" fill="black"/><rect x="24" y="24" width="4" height="4" fill="black"/>
<text x="31" y="20" font-size="4" font-weight="700">G / A</text>
<rect x="182" y="8" width="20" height="20" fill="white"/>
<rect x="182" y="8" width="4" height="4" fill="black"/><rect x="186" y="8" width="4" height="4" fill="black"/><rect x="190" y="8" width="4" height="4" fill="black"/><rect x="194" y="8" width="4" height="4" fill="black"/><rect x="198" y="8" width="4" height="4" fill="black"/>
<rect x="182" y="12" width="4" height="4" fill="black"/><rect x="186" y="12" width="4" height="4" fill="black"/><rect x="198" y="12" width="4" height="4" fill="black"/><rect x="182" y="16" width="4" height="4" fill="black"/><rect x="198" y="16" width="4" height="4" fill="black"/><rect x="182" y="20" width="4" height="4" fill="black"/><rect x="194" y="20" width="4" height="4" fill="black"/><rect x="198" y="20" width="4" height="4" fill="black"/>
<rect x="182" y="24" width="4" height="4" fill="black"/><rect x="186" y="24" width="4" height="4" fill="black"/><rect x="190" y="24" width="4" height="4" fill="black"/><rect x="194" y="24" width="4" height="4" fill="black"/><rect x="198" y="24" width="4" height="4" fill="black"/>
<text x="179" y="20" text-anchor="end" font-size="4" font-weight="700">G / B</text>
<rect x="182" y="269" width="20" height="20" fill="white"/>
<rect x="182" y="269" width="4" height="4" fill="black"/><rect x="186" y="269" width="4" height="4" fill="black"/><rect x="190" y="269" width="4" height="4" fill="black"/><rect x="194" y="269" width="4" height="4" fill="black"/><rect x="198" y="269" width="4" height="4" fill="black"/>
<rect x="182" y="273" width="4" height="4" fill="black"/><rect x="186" y="273" width="4" height="4" fill="black"/><rect x="198" y="273" width="4" height="4" fill="black"/><rect x="182" y="277" width="4" height="4" fill="black"/><rect x="190" y="277" width="4" height="4" fill="black"/><rect x="198" y="277" width="4" height="4" fill="black"/><rect x="182" y="281" width="4" height="4" fill="black"/><rect x="194" y="281" width="4" height="4" fill="black"/><rect x="198" y="281" width="4" height="4" fill="black"/>
<rect x="182" y="285" width="4" height="4" fill="black"/><rect x="186" y="285" width="4" height="4" fill="black"/><rect x="190" y="285" width="4" height="4" fill="black"/><rect x="194" y="285" width="4" height="4" fill="black"/><rect x="198" y="285" width="4" height="4" fill="black"/>
<text x="179" y="281" text-anchor="end" font-size="4" font-weight="700">T / B</text>
<rect x="8" y="269" width="20" height="20" fill="white"/>
<rect x="8" y="269" width="4" height="4" fill="black"/><rect x="12" y="269" width="4" height="4" fill="black"/><rect x="16" y="269" width="4" height="4" fill="black"/><rect x="20" y="269" width="4" height="4" fill="black"/><rect x="24" y="269" width="4" height="4" fill="black"/>
<rect x="8" y="273" width="4" height="4" fill="black"/><rect x="12" y="273" width="4" height="4" fill="black"/><rect x="20" y="273" width="4" height="4" fill="black"/><rect x="24" y="273" width="4" height="4" fill="black"/><rect x="8" y="277" width="4" height="4" fill="black"/><rect x="24" y="277" width="4" height="4" fill="black"/><rect x="8" y="281" width="4" height="4" fill="black"/><rect x="12" y="281" width="4" height="4" fill="black"/><rect x="20" y="281" width="4" height="4" fill="black"/><rect x="24" y="281" width="4" height="4" fill="black"/>
<rect x="8" y="285" width="4" height="4" fill="black"/><rect x="12" y="285" width="4" height="4" fill="black"/><rect x="16" y="285" width="4" height="4" fill="black"/><rect x="20" y="285" width="4" height="4" fill="black"/><rect x="24" y="285" width="4" height="4" fill="black"/>
<text x="31" y="281" font-size="4" font-weight="700">T / A</text>
<text x="105" y="259" text-anchor="middle" font-family="Arial,sans-serif" font-size="2.5">Gebruik alleen met de versie 'automatische markerherkenning'.</text>
<text x="105" y="262.5" text-anchor="middle" font-family="Arial,sans-serif" font-size="2.5">Print op 100% / werkelijke grootte - niet 'Aanpassen aan pagina'.</text>
<text x="105" y="266" text-anchor="middle" font-family="Arial,sans-serif" font-size="2.5">Controleer de 100.0 mm lijn na printen met een geschikt meetmiddel.</text>
</svg>